# xmcd
#
# Track frame offsets:
#	150
#	39974
#	64724
#	89181
#	114018
#	133913
#	163400
#	194346
#	214296
#	238325
#
# Disc length: 3567 seconds
#
# Revision: 0
# Processed by: cddbd v1.5.2PL0 Copyright (c) Steve Scherf et al.
# Submitted via: EZCDAudioConverter 3.0.8.1
#
DISCID=970ded0a
DTITLE=Kaniya Stranan 2
DYEAR=2007
DGENRE=Kurdish
TTITLE0=Mahmut Baran - Dılem Mın
TTITLE1=İhsane Muşe - Neminım
TTITLE2=Mehmet Sipan - Çiya Bılınde
TTITLE3=Sidar Sipan - Birindaro
TTITLE4=Bedil  - Sale
TTITLE5=Ahmed Xelil - Xezal Xezal
TTITLE6=Bengin - Ware Reş
TTITLE7=Bedrettin Coşkun - Malamın
TTITLE8=Murat Bektaş - Kırive
TTITLE9=Weysi - Emro
EXTD=
EXTT0=
EXTT1=
EXTT2=
EXTT3=
EXTT4=
EXTT5=
EXTT6=
EXTT7=
EXTT8=
EXTT9=
PLAYORDER=
